<svg width="32" height="32" viewBox="0 0 32 32" fill="none" xmlns="http://www.w3.org/2000/svg">
<path d="M0.00012207 10.5681C0.00012207 4.73149 4.73162 0 10.5682 0H21.432C27.2686 0 32.0001 4.73149 32.0001 10.5681V21.4319C32.0001 27.2685 27.2686 32 21.432 32H10.5682C4.73162 32 0.00012207 27.2685 0.00012207 21.4319V10.5681Z" fill="url(#paint0_linear_12591_79)"/>
<g filter="url(#filter0_d_12591_79)">
<path fill-rule="evenodd" clip-rule="evenodd" d="M9.32848 23.8721C8.98332 23.87 8.70589 23.5873 8.71026 23.2421L8.73333 21.4193L13.9101 16.2425C13.4555 15.2919 13.3031 14.2664 13.4529 13.1659C13.6027 12.0655 14.0961 11.0967 14.9331 10.2598C15.9664 9.22649 17.2063 8.70984 18.6529 8.70984C20.0995 8.70984 21.3395 9.22648 22.3728 10.2598C23.4061 11.2931 23.9227 12.533 23.9227 13.9796C23.9227 15.4262 23.4061 16.6662 22.3728 17.6995C21.5771 18.4951 20.6317 18.9859 19.5364 19.1719C18.4411 19.3579 17.3923 19.2081 16.39 18.7224L16.173 18.9394L16.173 20.7972C16.173 21.1408 15.8945 21.4193 15.5509 21.4193H14.3153C13.9717 21.4193 13.6931 21.6979 13.6931 22.0415V23.2732C13.6931 23.6183 13.4122 23.8975 13.0671 23.8953L9.32848 23.8721ZM19.5835 14.578C20.4425 14.578 21.1388 13.8816 21.1388 13.0226C21.1388 12.1637 20.4425 11.4673 19.5835 11.4673C18.7245 11.4673 18.0282 12.1637 18.0282 13.0226C18.0282 13.8816 18.7245 14.578 19.5835 14.578Z" fill="white"/>
</g>
<defs>
<filter id="filter0_d_12591_79" x="5.99057" y="6.53413" width="20.6518" height="20.6248" filterUnits="userSpaceOnUse" color-interpolation-filters="sRGB">
<feFlood flood-opacity="0" result="BackgroundImageFix"/>
<feColorMatrix in="SourceAlpha" type="matrix" values="0 0 0 0 0 0 0 0 0 0 0 0 0 0 0 0 0 0 127 0" result="hardAlpha"/>
<feOffset dy="0.543927"/>
<feGaussianBlur stdDeviation="1.35982"/>
<feComposite in2="hardAlpha" operator="out"/>
<feColorMatrix type="matrix" values="0 0 0 0 0 0 0 0 0 0 0 0 0 0 0 0 0 0 0.1 0"/>
<feBlend mode="normal" in2="BackgroundImageFix" result="effect1_dropShadow_12591_79"/>
<feBlend mode="normal" in="SourceGraphic" in2="effect1_dropShadow_12591_79" result="shape"/>
</filter>
<linearGradient id="paint0_linear_12591_79" x1="5.54818" y1="29.1273" x2="30.1881" y2="1.95814" gradientUnits="userSpaceOnUse">
<stop offset="0.229502" stop-color="#B6C4DF"/>
<stop offset="1" stop-color="#D3DDF5"/>
</linearGradient>
</defs>
</svg>
