<svg xmlns="http://www.w3.org/2000/svg" width="113" height="82" fill="none"><path fill="#fff" d="M0 21.797C0 9.76 9.76 0 21.798 0h22.407c12.038 0 21.797 9.759 21.797 21.797v22.407c0 12.039-9.759 21.798-21.797 21.798H21.798C9.759 66.002 0 56.242 0 44.204V21.797Z"/><path fill="url(#a)" d="M0 21.797C0 9.76 9.76 0 21.798 0h22.407c12.038 0 21.797 9.759 21.797 21.797v22.407c0 12.039-9.759 21.798-21.797 21.798H21.798C9.759 66.002 0 56.242 0 44.204V21.797Z"/><g filter="url(#b)"><path fill="#fff" d="M38.473 17.965c2.984 0 5.541 1.066 7.672 3.197 2.131 2.131 3.197 4.688 3.197 7.672 0 2.983-1.066 5.541-3.197 7.673-1.64 1.64-3.59 2.652-5.85 3.036-2.259.383-4.422.075-6.49-.927l-.447.447v3.832c0 .709-.575 1.283-1.283 1.283h-2.549c-.709 0-1.283.575-1.283 1.284v2.54c0 .712-.58 1.288-1.291 1.284l-7.711-.049a1.283 1.283 0 0 1-1.276-1.299l.048-3.76 10.678-10.677c-.938-1.96-1.252-4.076-.943-6.346.309-2.27 1.326-4.267 3.052-5.993 2.132-2.131 4.69-3.197 7.673-3.197Zm1.92 5.687a3.208 3.208 0 1 0 0 6.417 3.208 3.208 0 0 0 0-6.417Z"/></g><path fill="#FFE09D" fill-rule="evenodd" d="M107.401 46H46.599C43.52 46 41 48.52 41 51.599v13.927c0 3.083 2.52 5.598 5.599 5.598h6.859V81.54l10.746-10.415h43.197c3.078 0 5.599-2.515 5.599-5.598V51.599c0-3.078-2.521-5.599-5.599-5.599Z" clip-rule="evenodd"/><path fill="#fff" d="M65.582 54.92a1.325 1.325 0 0 0-1.81-.484l-3.171 1.832v-3.661a1.325 1.325 0 1 0-2.65 0v3.66l-3.171-1.83a1.324 1.324 0 1 0-1.325 2.293l3.172 1.832-3.172 1.832a1.325 1.325 0 1 0 1.325 2.295l3.172-1.832v3.66a1.324 1.324 0 1 0 2.649 0v-3.66l3.172 1.832a1.324 1.324 0 1 0 1.325-2.295l-3.173-1.832 3.173-1.832a1.325 1.325 0 0 0 .484-1.81Zm17.724 0a1.325 1.325 0 0 0-1.81-.484l-3.171 1.832v-3.661a1.324 1.324 0 1 0-2.65 0v3.66l-3.171-1.83a1.323 1.323 0 0 0-1.943 1.49 1.325 1.325 0 0 0 .618.803l3.172 1.832-3.172 1.832a1.326 1.326 0 0 0 1.325 2.295l3.171-1.832v3.661a1.325 1.325 0 1 0 2.65 0v-3.66l3.172 1.83a1.325 1.325 0 1 0 1.324-2.294l-3.172-1.831 3.172-1.832a1.325 1.325 0 0 0 .485-1.81Zm17.234 5.474-3.171-1.832 3.171-1.832a1.325 1.325 0 0 0-1.325-2.294l-3.167 1.83v-3.66a1.325 1.325 0 0 0-2.649 0v3.663l-3.172-1.833a1.325 1.325 0 0 0-1.325 2.294l3.171 1.832-3.171 1.832a1.325 1.325 0 0 0 1.325 2.294l3.172-1.832v3.662a1.325 1.325 0 0 0 2.65 0v-3.659l3.166 1.83a1.323 1.323 0 0 0 1.942-1.49 1.325 1.325 0 0 0-.617-.805Z"/><mask id="c" width="37" height="37" x="73" y="1" maskUnits="userSpaceOnUse" style="mask-type:luminance"><path fill="#fff" d="M73 1h37v37H73V1Z"/></mask><g mask="url(#c)"><path fill="#FCD88B" d="M91.5 12.563a3.469 3.469 0 0 0-3.469 3.468v.37a1.156 1.156 0 1 1-2.312 0v-.37a5.781 5.781 0 1 1 11.562 0v.318a6.296 6.296 0 0 1-5.781 6.275v2.657a1.156 1.156 0 1 1-2.313 0v-3.38c0-.867.704-1.569 1.57-1.569h.227a3.983 3.983 0 0 0 3.985-3.983v-.318a3.469 3.469 0 0 0-3.469-3.468Zm-1.156 17.343a1.156 1.156 0 1 0 0-2.312 1.156 1.156 0 0 0 0 2.312Z"/><path fill="#BBD9FD" fill-rule="evenodd" d="m73.25 36.126.002-.003.008-.011.035-.043.133-.173a38.186 38.186 0 0 0 1.855-2.645c.482-.764.901-1.518 1.14-2.127.117-.302.17-.516.184-.647A18.422 18.422 0 0 1 73 19.5C73 9.282 81.282 1 91.5 1S110 9.282 110 19.5 101.718 38 91.5 38a18.42 18.42 0 0 1-7.92-1.777 2.704 2.704 0 0 0-.267 0c-.282.01-.666.05-1.133.116-.932.131-2.1.354-3.257.597-1.469.31-2.932.646-4.39 1.006l-.073.017-.023.006a1.156 1.156 0 0 1-1.252-.495l.065-1.344ZM91.5 3.313c-8.94 0-16.188 7.247-16.188 16.187a16.1 16.1 0 0 0 3.238 9.712c.372.498.4 1.072.36 1.484-.042.428-.176.867-.334 1.272-.32.813-.83 1.711-1.337 2.517-.112.178-.226.353-.339.525a100.44 100.44 0 0 1 1.55-.337 55.212 55.212 0 0 1 3.405-.624c.453-.068.91-.114 1.369-.138.195-.008.39-.005.586.01.164.016.424.05.676.172a16.117 16.117 0 0 0 7.014 1.594c8.94 0 16.188-7.247 16.188-16.187 0-8.94-7.248-16.188-16.188-16.188Z" clip-rule="evenodd" opacity=".502"/></g><defs><linearGradient id="a" x1="11.444" x2="62.265" y1="60.077" y2="4.039" gradientUnits="userSpaceOnUse"><stop offset=".23" stop-color="#B6C4DF"/><stop offset="1" stop-color="#D3DDF5"/></linearGradient><filter id="b" width="42.596" height="42.54" x="12.356" y="13.477" color-interpolation-filters="sRGB" filterUnits="userSpaceOnUse"><feFlood flood-opacity="0" result="BackgroundImageFix"/><feColorMatrix in="SourceAlpha" result="hardAlpha" values="0 0 0 0 0 0 0 0 0 0 0 0 0 0 0 0 0 0 127 0"/><feOffset dy="1.122"/><feGaussianBlur stdDeviation="2.805"/><feComposite in2="hardAlpha" operator="out"/><feColorMatrix values="0 0 0 0 0 0 0 0 0 0 0 0 0 0 0 0 0 0 0.1 0"/><feBlend in2="BackgroundImageFix" result="effect1_dropShadow_4713_5827"/><feBlend in="SourceGraphic" in2="effect1_dropShadow_4713_5827" result="shape"/></filter></defs></svg>