<svg xmlns="http://www.w3.org/2000/svg" width="172" height="83" fill="none"><g clip-path="url(#a)"><path fill="#fff" d="M133.409 50.086a5.28 5.28 0 1 0 0-10.562 5.28 5.28 0 0 0 0 10.562Z"/><path fill="url(#b)" d="M133.409 39.526h9.146a10.565 10.565 0 0 0-9.146-5.282 10.558 10.558 0 0 0-9.146 5.283l4.573 7.92h.004a5.277 5.277 0 0 1 1.927-7.216 5.279 5.279 0 0 1 2.642-.705Z"/><path fill="#1A73E8" d="M133.41 48.988a4.181 4.181 0 1 0 0-8.362 4.181 4.181 0 0 0 0 8.362Z"/><path fill="url(#c)" d="m137.982 47.449-4.573 7.92a10.557 10.557 0 0 0 10.561-10.561 10.55 10.55 0 0 0-1.416-5.281h-9.146l-.001.004a5.276 5.276 0 0 1 4.575 7.918Z"/><path fill="url(#d)" d="m128.836 47.449-4.573-7.92a10.552 10.552 0 0 0-.001 10.561 10.559 10.559 0 0 0 9.148 5.28l4.573-7.921-.003-.003a5.272 5.272 0 0 1-7.212 1.938 5.27 5.27 0 0 1-1.932-1.935Z"/></g><path fill="#BBD9FD" fill-rule="evenodd" d="M95 25.849A9.848 9.848 0 0 1 104.849 16h57.302A9.848 9.848 0 0 1 172 25.849v35.814a9.85 9.85 0 0 1-9.849 9.849h-20.725l2.686 5.372h7.295a2.685 2.685 0 1 1 0 5.372h-35.814a2.685 2.685 0 1 1 0-5.372h7.292l2.686-5.372h-20.722A9.85 9.85 0 0 1 95 61.662V25.85Zm67.151 40.29h-57.302a4.479 4.479 0 0 1-4.477-4.476V25.849a4.479 4.479 0 0 1 4.477-4.477h57.302a4.479 4.479 0 0 1 4.477 4.477v35.814a4.479 4.479 0 0 1-4.477 4.477Z" clip-rule="evenodd" opacity=".502"/><path fill="#fff" d="M0 37.797C0 25.76 9.76 16 21.798 16h22.407c12.038 0 21.797 9.759 21.797 21.797v22.407c0 12.039-9.759 21.798-21.797 21.798H21.798C9.759 82.002 0 72.242 0 60.204V37.797Z"/><path fill="url(#e)" d="M0 37.797C0 25.76 9.76 16 21.798 16h22.407c12.038 0 21.797 9.759 21.797 21.797v22.407c0 12.039-9.759 21.798-21.797 21.798H21.798C9.759 82.002 0 72.242 0 60.204V37.797Z"/><g filter="url(#f)"><path fill="#fff" d="M38.473 33.965c2.984 0 5.541 1.066 7.672 3.197 2.131 2.131 3.197 4.688 3.197 7.672 0 2.983-1.066 5.541-3.197 7.673-1.64 1.64-3.59 2.652-5.85 3.036-2.259.383-4.422.075-6.49-.927l-.447.447v3.832c0 .709-.575 1.283-1.283 1.283h-2.549c-.709 0-1.283.575-1.283 1.284v2.54c0 .712-.58 1.288-1.291 1.284l-7.711-.049a1.283 1.283 0 0 1-1.276-1.299l.048-3.76 10.678-10.677c-.938-1.96-1.252-4.076-.943-6.346.309-2.27 1.326-4.267 3.052-5.993 2.132-2.131 4.69-3.197 7.673-3.197Zm1.92 5.687a3.208 3.208 0 1 0 0 6.417 3.208 3.208 0 0 0 0-6.417Z"/></g><path fill="#BBD9FD" fill-rule="evenodd" d="M97.613 8.934c-1.433-2.328-5.14-7.857-5.329-8.117-.69-.944-1.487-.938-1.95-.638-.565.358-.735 1.118-.386 1.731.416.728.818 1.462 1.223 2.196.142.26.283.517.426.775-4.673-3.378-11.462-3.188-13.744-3.01-.438.034-.876.08-1.272.128-.783.034-1.558.097-2.302.186a28.72 28.72 0 0 0-8.4 2.324c-1.917.862-4.832 2.162-4.879 4.712.033.52.258.93.6 1.093.226.107.485.087.735-.084.459-.315 1.532-1.054 2.84-1.687a31.917 31.917 0 0 1 12.048-3.186c2.776-.174 5.562.02 8.287.575 1.37.281 3.198.714 4.956 1.475-1.295-.215-2.62-.44-3.912-.706-.679-.14-1.274.01-1.626.416a1.191 1.191 0 0 0-.214 1.213c.212.574.785.975 1.574 1.1.413.066.827.137 1.238.208.885.153 1.799.31 2.655.403 2.192.52 4.387.74 6.825.955.183.017.36-.02.512-.1a.875.875 0 0 0 .335-.31c.18-.288.286-.808-.24-1.652Z" clip-rule="evenodd" opacity=".502"/><defs><linearGradient id="b" x1="124.263" x2="142.555" y1="40.846" y2="40.846" gradientUnits="userSpaceOnUse"><stop stop-color="#D93025"/><stop offset="1" stop-color="#EA4335"/></linearGradient><linearGradient id="c" x1="131.966" x2="141.112" y1="55.228" y2="39.386" gradientUnits="userSpaceOnUse"><stop stop-color="#FCC934"/><stop offset="1" stop-color="#FBBC04"/></linearGradient><linearGradient id="d" x1="134.552" x2="125.406" y1="54.71" y2="38.868" gradientUnits="userSpaceOnUse"><stop stop-color="#1E8E3E"/><stop offset="1" stop-color="#34A853"/></linearGradient><linearGradient id="e" x1="11.444" x2="62.265" y1="76.076" y2="20.039" gradientUnits="userSpaceOnUse"><stop offset=".23" stop-color="#B6C4DF"/><stop offset="1" stop-color="#D3DDF5"/></linearGradient><clipPath id="a"><path fill="#fff" d="M122.847 34.244h21.125V55.37h-21.125z"/></clipPath><filter id="f" width="42.596" height="42.54" x="12.356" y="29.477" color-interpolation-filters="sRGB" filterUnits="userSpaceOnUse"><feFlood flood-opacity="0" result="BackgroundImageFix"/><feColorMatrix in="SourceAlpha" result="hardAlpha" values="0 0 0 0 0 0 0 0 0 0 0 0 0 0 0 0 0 0 127 0"/><feOffset dy="1.122"/><feGaussianBlur stdDeviation="2.805"/><feComposite in2="hardAlpha" operator="out"/><feColorMatrix values="0 0 0 0 0 0 0 0 0 0 0 0 0 0 0 0 0 0 0.1 0"/><feBlend in2="BackgroundImageFix" result="effect1_dropShadow_4713_5845"/><feBlend in="SourceGraphic" in2="effect1_dropShadow_4713_5845" result="shape"/></filter></defs></svg>