<svg xmlns="http://www.w3.org/2000/svg" width="292" height="191" fill="none"><g clip-path="url(#a)"><path fill="#DCEDFD" fill-rule="evenodd" d="M103.976 187.933c3.475 1.145 12.394 2.135 19.584 2.532 19.627 1.081 47.055.495 58.68-1.498 11.714-2.007 12.237-5.045-17.543-6.55-25.353-1.28-54.948.548-61.277 3.265-1.7.73-1.605 1.541.556 2.251Z" clip-rule="evenodd"/><path fill="#BBD9FD" fill-rule="evenodd" d="M175.715 89.208c.405 1.54 1.172 1.55 1.498 1.147 1.976-2.452 3.938-4.928 5.526-7.628 1.111-1.455 2.096-3 3.14-4.504 1.43-2.054-.65-3.615-1.89-1.647-1.655 2.626-3.464 5.151-5.197 7.727.021-.17.04-.342.063-.515.652-3.478 2.36-6.739 4.233-9.708 2.075-3.293 4.56-6.37 7.475-8.926 3.971-3.482 5.283-4.794 9.874-6.761 1.976-.847.608-3.861-1.907-2.865-3.65 1.446-4.425 2.155-7.47 4.63a39.227 39.227 0 0 0-2.352 2.075c-.463.372-.92.757-1.366 1.153-5.7 5.048-11.386 12.996-9.793 20.997-.21-.773-.455-1.541-.683-2.306-.69-2.323-1.454-4.62-2.15-6.94-.386-1.289-2.447-1.27-2.046.95.073.41 2.078 9.437 3.045 13.121Z" clip-rule="evenodd" opacity=".502"/><path fill="#BBD9FD" fill-rule="evenodd" d="M111.148 84.923c-.227.765-.472 1.533-.683 2.306 1.592-8-4.094-15.947-9.793-20.996-.446-.395-.902-.78-1.365-1.153a39.06 39.06 0 0 0-2.353-2.075c-3.045-2.475-4.08-3.3-6.703-5.268-4.042-3.031-6.307.9-4.382 1.921 5.038 2.67 7.23 4.358 11.582 8.344a43.699 43.699 0 0 1 7.476 8.925c1.87 2.968 3.58 6.23 4.232 9.708.022.172.042.344.062.516-1.731-2.576-3.54-5.101-5.196-7.728-1.24-1.967-3.32-.407-1.891 1.647 1.045 1.504 2.029 3.048 3.141 4.504 1.587 2.7 3.55 5.175 5.526 7.627.327.404 1.094.393 1.498-1.146.967-3.686 2.971-12.71 3.045-13.12.401-2.22-1.66-2.24-2.045-.952-.695 2.321-1.46 4.619-2.151 6.94Z" clip-rule="evenodd" opacity=".501"/><mask id="b" width="42" height="15" x="194" y="95" maskUnits="userSpaceOnUse" style="mask-type:luminance"><path fill="#fff" d="M194.7 95.079h40.415v14.816H194.7V95.079Z"/></mask><g mask="url(#b)"><path fill="#BBD9FD" fill-rule="evenodd" d="M194.86 108.378c-.43 1.26.1 1.62.514 1.49 2.507-.793 5.018-1.612 7.371-2.76 1.446-.5 2.844-1.117 4.266-1.684 1.944-.772 1.218-2.82-.555-2.02-2.366 1.063-4.791 1.989-7.187 2.982.092-.112.186-.224.282-.331 2.057-2.118 4.757-3.605 7.432-4.802a36.13 36.13 0 0 1 9.33-2.764c4.87-.77 7.565-1.251 12.326-.088 1.739.419 2.312-2.173.102-2.637a32.047 32.047 0 0 0-9.777-.529c-.868.087-1.736.208-2.597.358-.495.048-.988.106-1.48.176-6.305.88-13.934 3.79-16.52 10.099.21-.638.392-1.286.59-1.924.591-1.935 1.12-3.89 1.705-5.829.326-1.074-1.115-2.011-1.863-.281-.136.32-2.91 7.53-3.939 10.544Z" clip-rule="evenodd" opacity=".502"/></g><mask id="c" width="42" height="16" x="54" y="100" maskUnits="userSpaceOnUse" style="mask-type:luminance"><path fill="#fff" d="M54.834 100.828h40.414v14.815H54.834v-14.815Z"/></mask><g mask="url(#c)"><path fill="#BBD9FD" fill-rule="evenodd" d="M90.994 109.693c.196.638.378 1.286.587 1.921-2.584-6.306-10.216-9.218-16.517-10.098a33.552 33.552 0 0 0-1.483-.174 33.388 33.388 0 0 0-2.597-.357 32.217 32.217 0 0 0-9.776.524c-2.211.467-1.06 3.066.84 2.794 4.592-.656 6.717-.833 11.59-.07a36.583 36.583 0 0 1 9.33 2.766c2.673 1.2 5.37 2.684 7.432 4.805l.282.332c-2.399-.996-4.825-1.92-7.19-2.985-1.772-.797-2.5 1.252-.556 2.021 1.422.566 2.822 1.186 4.269 1.687 2.353 1.145 4.861 1.966 7.37 2.76.415.13.944-.233.512-1.492-1.028-3.014-3.799-10.223-3.937-10.543-.747-1.731-2.19-.794-1.865.282.589 1.937 1.117 3.892 1.709 5.827Z" clip-rule="evenodd" opacity=".502"/></g><path fill="#BBD9FD" fill-rule="evenodd" d="M148.7 68.708c-1.096 1.74-2.252 3.455-3.344 5.199-.362.574-.739 1.147-1.085 1.73 1.84-3.615 1.728-14.049 1.03-17.847-.504-2.738-2.608-2.495-2.667.894-.048 2.777.914 13.431.682 16.29-.02.14-.043.28-.064.416-.871-2.3-1.813-4.57-2.607-6.898-.594-1.744-2.678-.81-1.946 1.033.536 1.347 1.013 2.718 1.614 4.036.722 2.38 1.802 4.632 2.904 6.872.182.365.823.471 1.503-.692 1.632-2.79 5.32-9.663 5.472-9.976.832-1.706-.88-2.024-1.491-1.057" clip-rule="evenodd" opacity=".502"/><path fill="#FF7900" fill-rule="evenodd" d="M24.375 132.511H52v-27.625H24.375v27.625Z" clip-rule="evenodd"/><path fill="#fff" fill-rule="evenodd" d="M33.796 129.024a.46.46 0 0 0 .455.5c.352-.014.685-.157.938-.402v-.91c-.944.121-1.393.363-1.393.818v-.006Zm1.416.81a2.204 2.204 0 0 1-1.266.38 1.075 1.075 0 0 1-.828-.296 1.072 1.072 0 0 1-.323-.819c0-.858.788-1.313 2.417-1.497v-.22c0-.275-.213-.436-.604-.436a1.145 1.145 0 0 0-.933.437l-.667-.386c.383-.514 1-.797 1.64-.753 1.002 0 1.56.437 1.56 1.151v2.791h-.898l-.098-.351v-.001Zm1.79-3.4.834-.12.092.46c.364-.325.83-.514 1.318-.536a1.086 1.086 0 0 1 1.203 1.255v2.675h-1.013v-2.497c0-.472-.12-.685-.489-.685-.355.025-.69.177-.944.426v2.756h-1.001v-3.734Zm10.906 1.306a.736.736 0 0 0-.777-.817c-.455 0-.742.293-.777.817h1.554Zm-.76 2.504c-1.15 0-1.807-.731-1.807-1.997 0-1.267.68-2.009 1.79-2.009 1.11 0 1.773.708 1.773 1.963v.19H46.33c0 .73.311 1.099.91 1.099a.978.978 0 0 0 .869-.49l.742.415a1.853 1.853 0 0 1-1.703.829Zm-19.372-3.16c-.753 0-.897.68-.897 1.151 0 .472.144 1.151.897 1.151.754 0 .893-.685.893-1.15 0-.468-.139-1.152-.893-1.152Zm0 3.2a1.846 1.846 0 0 1-1.817-1.249 1.845 1.845 0 0 1-.088-.777 1.839 1.839 0 0 1 1.134-1.895c.244-.1.507-.146.771-.136a1.846 1.846 0 0 1 1.413.582 1.846 1.846 0 0 1 .487 1.449 1.837 1.837 0 0 1-1.9 2.026Zm2.596-3.96h.961v.432a1.49 1.49 0 0 1 1.191-.53v.95h-.051c-.438 0-.921.07-1.07.409v2.555h-1.031v-3.816Zm14.359-.011v3.643c0 .644-.052 1.697-1.882 1.726-.754 0-1.456-.293-1.6-.955l1.002-.16c.04.19.155.38.725.38s.777-.255.777-.858v-.455a1.015 1.015 0 0 1-.996.575c-.892 0-1.6-.622-1.6-1.922 0-1.3.725-2.009 1.543-2.009.817 0 1.053.352 1.116.535l.086-.46.829-.04Zm-1.807 3.033c.771 0 .835-.783.835-1.295 0-.512-.294-1.088-.84-1.088-.363 0-.772.265-.772 1.151 0 .455.035 1.237.777 1.232Zm8.034-3.217h-.213v-1.048l-.414 1.06h-.132l-.42-1.06v1.06h-.208v-1.267h.323l.38.967.373-.967h.323l-.012 1.255Zm-1.657-1.1h-.397v1.1h-.213v-1.1h-.397v-.172H49.3v.173l.001-.001Z" clip-rule="evenodd"/><path fill="#0062AE" d="M83.087 42.436c.834-1.392 1.02-1.416 1.08-1.998.048-.456-1.026-.966-1.644-1.386a3.462 3.462 0 0 0-1.632-.6c-.276 0-.642.048-.6-.096.378-1.116-.27-1.386-.528-1.44v-.6h-.108v-.096H68.95a10.036 10.036 0 0 0-1.8-.306c-.27 0-.846.3-1.038.306a1.265 1.265 0 0 1-.54-.198c-.168-.144-.33-.48-1.2-.324a1.07 1.07 0 0 0-.732.522h-4.8v.108h-.108v6a.954.954 0 0 0-.504.144c-.054.036-.318.132-.366.336-.168.144-.216.45-.108.558 0 .072-.108.444.216.552a.487.487 0 0 1-.156.75 4.967 4.967 0 0 0-1.404.558c-2.292 1.146-.156 1.704.234 1.74.564.048.69.096.504.678-.1.459-.093.935.018 1.392-.456 0-.516.498-.504.834-.294 1.038.6.798.87.348.84.378 1.14-.894 1.2-.852v.822a5.14 5.14 0 0 1-.288.492c-.402.87-.06.522-.084.894-.024.372 0 .6.372.696v4.992h.108v.12h3.516c.062.041.126.08.192.114.402.18.438.192.546 0a.379.379 0 0 0 .048-.138h16.512v-.12h.114v-6.534c.786 0 .522-.198.6-.93.078-.732.186-1.8.186-1.728.096.738.372 2.004.264 2.166-.1.21-.267.384-.474.492-.396.24-.396.372-.384.402.012.03-.06.24.432.252a2.778 2.778 0 0 0 1.128-.354c.18-.096.42-.048.516-.36a3.657 3.657 0 0 0 0-.834c.181-.809.25-1.639.204-2.466.426-1.026.354-3.33.342-3.468.384-.66.564-.798.528-1.434l-.023-.006Zm-20.172 14.4a.15.15 0 0 1 0-.192v-.048.24Zm.216-.6c.333-.49.805-.868 1.356-1.086.438-.15 1.89-.642 2.532-.792v2.82H63.13V56.2l.001.036Zm15.984-12.84c-.102.395-.182.795-.24 1.2h-1.962c.349-.265.674-.56.972-.882.528-.18.3-.48.156-.678a.636.636 0 0 0-.75-.036c-.654 0-.156.264-.252.39-.198.192-1.044.6-1.344.81l-.12.072v-3.528c1.032.432 2.754.24 3 .426.465.628.662 1.416.546 2.19l-.006.036Zm-.276 2.04c-.12 1.506.348 2.646.432 3.384h-3.696v-3.384a4.433 4.433 0 0 0 1.062-.678h2.208c-.03.342 0 .45 0 .654l-.006.024ZM60.1 47.308a1.584 1.584 0 0 1 .252-1.134c.313-.221.654-.4 1.014-.534a4.51 4.51 0 0 0 1.524-.714v2.724a.797.797 0 0 1-.18 0c-.414-.06-.438.06-.414.15.024.09.036.06-.372.036-.63 0-.426.42-.132.54.357.107.726.167 1.098.18v.27h-2.514c-.078-.906-.258-1.134-.276-1.5v-.018Zm3.744-5.472c.072-.18-.108-.462 0-.678.138-.21.29-.41.456-.6h1.8a2.8 2.8 0 0 0 .492.048 1.56 1.56 0 0 0 .288-.048h.108v3.972h-3.402a.643.643 0 0 0 .21-.216c.096-.252.072-.498-.108-.51-.39.204-.186.036-.366.06-.06.046-.124.087-.192.12V42.58c.268-.217.508-.467.714-.744Zm3.948-3.216c.037-.193.113-.377.222-.54.072-.18.36-.522.372-.702 0 0 .426.036.546.036l.834-.048c.252 0 .72.168.918.156h.516v2.844h-3.9a2.2 2.2 0 0 0 .528-.708c.07-.339.053-.69-.048-1.02l.012-.018Zm7.566 2.016v3.672a.378.378 0 0 1-.204 0c-.084-.036-.6-.258-.666-.27-.066-.012-.06.066-.666-.252a1.906 1.906 0 0 0-1.512-.336c-.552.072-.732.168-.732-.06s.312-.402.312-.402c.42-.144.24-.408.204-.48a1.273 1.273 0 0 0-.108-.474c.216-.192-.204-.384-.276-.492a1.975 1.975 0 0 0-.282-.6v-.336h3.828l.102.054v-.024Zm-12.228 4.2.072-.036h3.816v.972c-.504.348-.768.6-1.338.948-.69.407-1.426.735-2.19.978 0 0-.228.09-.324 0h-.036v-2.862Zm4.11-.036h1.278l-1.278.828V44.8Zm3.972-4.05a.852.852 0 0 0-.762-.042 2.91 2.91 0 0 0-1.566 1.002.84.84 0 0 0-.366.432c-.036.174.18.318 0 .666a.546.546 0 0 0 0 .63c0 .072.048.408.264.468.6.06.414.12.678.222a4.505 4.505 0 0 1-.6.456h-1.62v-4.002h3.972v.168Zm-8.082 7.8c.066-.096.228-.216.738-.198 1.368.048 2.556-.78 3.15-1.104v1.578H63.13v-.276Zm4.11-1.41c.564-.264 1.8-.936 2.052-.852.446.413.754.953.882 1.548-.114.354-.474.6-.636 1.002H67.24v-1.716.018Zm2.226 1.896c-.3 1.11.126 1.026 0 1.656-.036.204-1.014.822-1.716 1.596-.15.167-.323.311-.516.426v-3.678h2.232Zm1.746 3.45v.474h-.534c.19-.149.368-.311.534-.486v.012Zm.216-.21c.215-.271.445-.53.69-.774.108 0 .306 0 .942.264 1.596.69 1.632.36 1.896.666.047.179.105.355.174.528h-3.702v-.696.012Zm3.93-1.914a40.674 40.674 0 0 1-1.866-1.326h1.866v1.326ZM73.21 48.82l-.138-.108c.005-.294.033-.587.084-.876-.01-.492.077-.982.258-1.44.336-.216.252-.702.348-.942a8.03 8.03 0 0 0 1.596 0v3.324l-2.148.042Zm.468-9.084c-.084 0-.276.06-.228.12.216.264.792.144.978.24l.468.276h-3.468v-2.856c.167 0 .334.019.498.054.18.072.954.498 1.062.438.108-.06-.108-.216-.084-.294.024-.078.678.078.762-.108.084-.186-.486-.42-.678-.48-.192-.06-.666-.06-.822-.09-.156-.03-.426-.174-.738-.276v-.324h3.93v3.348a2.32 2.32 0 0 1-.846-.306 1.65 1.65 0 0 0-1.086-.396s-.462.036-.45.276c.252.083.489.207.702.366v.012Zm-2.466-3.048a1.296 1.296 0 0 0-.246-.048c-.108 0-.774-.144-.894-.168l-.162-.036h1.302v.252Zm-6.75 3.672c.048-.126.054-.42.12-.432.066-.012.396.234.864.432h-.984Zm-1.548-.558c-.036.186-.078.378-.114.558h-3.834v-3.924h3.966v3.366h-.018Zm-.168.78c-.073.342-.163.68-.27 1.014 0 .048-.312.492-.42.66-.108.168-.258.21-.342.306-.084.096-.06.276.15.336s.456-.18.528-.168c.072.012 0 .192.144.192a.768.768 0 0 0 .378-.174v1.422c-.054.12-.072.084-.246.156-.37.136-.764.2-1.158.192l-.522.036h-1.464a.12.12 0 0 1-.054-.096c.384-.45.192-.498.264-.702.037-.238.049-.48.036-.72a.672.672 0 0 0-.096-.468 1.61 1.61 0 0 0-.348-.132c-.108 0-.21-.126-.378-.156v-1.698h3.798Zm-3.18 11.538c.084-.174-.36-.6-.132-.996.228-.396.99-1.05.978-1.488v-.6h2.52v3.924h-3.966v-.66c.372.036.498-.024.6-.18Zm3.6-3.096h3.888v3.792a2.21 2.21 0 0 1-.414.132h-3.51v-3.912l.036-.012Zm2.568 4.146c-.51.222-1.266.948-2.316 1.524l-.252.126v-1.65h2.568Zm1.542 1.11c1.326-.12 1.2-.384 1.716-.522.494-.127.965-.33 1.398-.6h.846v3.972H67.24l.036-2.85Zm4.2-1.11h3.792c.042.096.09.192.138.282v3.69h-3.978V53.17h.048Zm4.098.666c.191.34.423.656.69.942.403.347.672.825.762 1.35 0 .45-.294.798.498 1.002h-1.95v-3.294Zm3.972 3a1.856 1.856 0 0 0-.552-.288 2.316 2.316 0 0 1-1.248-1.2 13.927 13.927 0 0 1-.828-2.232h2.628v3.72Zm-2.694-3.918a10.065 10.065 0 0 1-.216-.918 2.021 2.021 0 0 0-1.062-1.536v-1.428h3.714c.048.6-.066.846-.84 1.308-.774.462.156.432.156.432s.048-.066.942-.06v2.244l-2.694-.042Zm1.878-15.852c-.45.252-.27.564-.354.708-.084.144-.264.234-.264.402s.18.192.18.204c0 .276.036.486.036.546 0 .216.264.192.228.252-.036.06-.492.216-.81.42a1.56 1.56 0 0 1-.78.318 5.923 5.923 0 0 1-1.2-.072h-.168v-3.408h3.948v.462a1.368 1.368 0 0 0-.816.168Zm-15.24-.03c.065.477.41.87.876.996.258.036.246-.048.474-.096.228-.048.252.06.348.036.096-.024 0-.084.132-.12.132-.036.39-.048.462-.186a.912.912 0 0 1 .192-.24c-.252 1.014-.336 1.002-.336 1.002-1.2-.312-2.028-.252-2.238-.096a.45.45 0 0 0-.24.294v-2.19h.426a1.23 1.23 0 0 0-.06.6h-.036Zm-4.524 20.106V53.17h3.966v1.758a6.134 6.134 0 0 1-1.356.486c-.6.222-.288.6-.12.678.098.258.218.507.36.744.08.121.172.234.276.336l-3.126-.03Z"/><path fill="#010101" fill-rule="evenodd" d="M155.688 37.292c0 .642.16 1.156.482 1.543.32.387.753.58 1.296.58.05 0 .12-.008.21-.024.09-.017.152-.025.185-.025.691-.181 1.226-.626 1.604-1.333.184-.32.322-.666.408-1.025.09-.37.14-.67.148-.9.008-.231.012-.61.012-1.137v-.617c-.954 0-1.678.066-2.172.198-1.449.411-2.173 1.325-2.173 2.74Zm-4.246.494c0-1.136.28-2.107.84-2.913.559-.807 1.324-1.416 2.295-1.827.89-.379 1.984-.65 3.284-.815.444-.05 1.168-.115 2.172-.197v-.42c0-1.053-.115-1.761-.345-2.123-.346-.494-.89-.74-1.63-.74h-.197a2.705 2.705 0 0 0-1.407.518c-.395.296-.65.707-.766 1.234-.066.33-.23.518-.493.568l-2.84-.346c-.28-.066-.42-.214-.42-.444a.778.778 0 0 1 .025-.173c.28-1.465.967-2.551 2.062-3.259 1.094-.708 2.374-1.103 3.839-1.185h.617c1.876 0 3.341.486 4.394 1.457.166.165.318.343.457.53.14.19.251.359.333.507.083.148.157.362.223.642.065.28.115.473.148.58.033.107.057.337.074.69.016.355.024.565.024.63v5.975c0 .428.062.819.186 1.173.123.353.242.608.358.765.115.156.304.407.567.753.1.148.148.28.148.395 0 .131-.065.247-.197.345-.74.643-1.481 1.285-2.222 1.926-.197.148-.436.165-.716.05a8.326 8.326 0 0 1-.605-.568c-.125-.13-.248-.262-.37-.395a5.604 5.604 0 0 1-.358-.482 10.38 10.38 0 0 0-.346-.481c-.921 1.004-1.826 1.63-2.715 1.876-.56.165-1.251.247-2.074.247-1.267 0-2.308-.39-3.123-1.173-.815-.781-1.222-1.888-1.222-3.32Z" clip-rule="evenodd"/><path fill="#F90" fill-rule="evenodd" d="M144.011 44.822c.082-.132.214-.14.395-.025 4.115 2.387 8.591 3.58 13.43 3.58 3.226 0 6.41-.6 9.554-1.802.082-.033.202-.083.358-.149.157-.065.268-.115.333-.148.247-.098.44-.049.58.148.14.198.095.379-.135.544-.296.214-.675.46-1.136.74-1.415.84-2.995 1.49-4.74 1.95-1.744.461-3.448.692-5.11.692-2.568 0-4.995-.449-7.283-1.346a20.063 20.063 0 0 1-6.147-3.79c-.099-.082-.148-.164-.148-.246 0-.05.016-.099.049-.148Z" clip-rule="evenodd"/><path fill="#F90" fill-rule="evenodd" d="M166.057 45.241a.773.773 0 0 1 .148-.197c.412-.28.807-.47 1.185-.568a8.056 8.056 0 0 1 1.827-.271c.165-.017.321-.009.47.024.74.066 1.184.19 1.332.37.066.1.099.247.099.445v.173c0 .576-.156 1.255-.469 2.037-.313.781-.749 1.41-1.308 1.888-.083.066-.157.099-.223.099a.219.219 0 0 1-.098-.025c-.1-.05-.124-.14-.074-.271.608-1.432.913-2.428.913-2.988 0-.18-.033-.312-.099-.395-.164-.197-.625-.296-1.382-.296-.28 0-.61.017-.988.05-.411.049-.79.098-1.135.148-.1 0-.165-.017-.198-.05s-.041-.066-.025-.098a.199.199 0 0 1 .025-.075Z" clip-rule="evenodd"/><mask id="d" width="6" height="28" x="236" y="32" maskUnits="userSpaceOnUse" style="mask-type:luminance"><path fill="#fff" d="M236.418 32.047h5.475v27.62h-5.475v-27.62Z"/></mask><g mask="url(#d)"><path fill="#B1060F" fill-rule="evenodd" d="M236.418 32.047v13.8c0 7.591.007 13.809.018 13.82.011.01.48-.037 1.047-.099a87.357 87.357 0 0 1 1.738-.174 98.92 98.92 0 0 1 2.589-.167c.062 0 .065-.31.072-5.847l.011-5.833-.004-.01v.007l-5.471-15.497Z" clip-rule="evenodd"/></g><mask id="e" width="6" height="19" x="236" y="32" maskUnits="userSpaceOnUse" style="mask-type:luminance"><path fill="#fff" d="M236.418 32.047h5.475v18.65h-5.475v-18.65Z"/></mask><g mask="url(#e)"><path fill="#9D030F" fill-rule="evenodd" d="m241.887 50.697.006-3.15-.004-.01v.007l-5.471-15.497 5.469 18.65Z" clip-rule="evenodd"/></g><path fill="#B1060F" fill-rule="evenodd" d="m246.216 32.065-.01 6.104-.012 6.101 5.425 15.392c-.003.004-.018.005-.041.006.027 0 .044-.002.048-.006.018-.014.022-6.228.018-13.811l-.01-13.786h-5.418Z" clip-rule="evenodd"/><path fill="#9D030F" fill-rule="evenodd" d="m246.2 41.185-.006 3.085 5.193 14.735-5.187-17.82Z" clip-rule="evenodd"/><mask id="f" width="16" height="28" x="236" y="32" maskUnits="userSpaceOnUse" style="mask-type:luminance"><path fill="#fff" d="M236.418 32.043h15.201v27.625h-15.201V32.043Z"/></mask><g mask="url(#f)"><path fill="#E50914" fill-rule="evenodd" d="m236.418 32.047 5.47 15.496v-.007l.433 1.221c1.229 3.487 2.463 6.972 3.702 10.456.004.004.368.025.808.047 1.33.066 2.981.208 4.235.364.287.036.538.055.553.04l-5.425-15.394v.004l-.502-1.417-2.791-7.885c-.532-1.5-.982-2.77-1-2.827l-.038-.102h-2.722l-2.723.004Z" clip-rule="evenodd"/></g><path fill="#FBBC05" d="m290.986 114.715-13.543-.057v5.525h7.807c-1.14 3.216-4.2 5.525-7.807 5.525a8.275 8.275 0 0 1-3.171-.631 8.28 8.28 0 0 1-5.116-7.656c0-1.088.214-2.166.63-3.172a8.301 8.301 0 0 1 4.485-4.485 8.284 8.284 0 0 1 3.172-.631c2.112 0 4.036.796 5.498 2.1l3.906-3.907a13.745 13.745 0 0 0-9.404-3.718c-7.63 0-13.812 6.183-13.812 13.813 0 7.629 6.183 13.812 13.812 13.812 7.63 0 13.813-6.183 13.813-13.812 0-.926-.095-1.83-.27-2.706Z"/><path fill="#EA4335" d="m265.222 110.992 4.54 3.329a8.278 8.278 0 0 1 7.681-5.188c2.112 0 4.036.796 5.498 2.1l3.906-3.907a13.745 13.745 0 0 0-9.404-3.718c-5.306 0-9.906 2.995-12.22 7.384h-.001Z"/><path fill="#34A853" d="M277.443 131.233c3.567 0 6.81-1.365 9.261-3.585l-4.275-3.618a8.23 8.23 0 0 1-4.986 1.678c-3.593 0-6.642-2.29-7.791-5.487l-4.505 3.47c2.285 4.472 6.928 7.542 12.296 7.542Z"/><path fill="#4285F4" d="m290.986 114.715-13.543-.057v5.525h7.807a8.325 8.325 0 0 1-2.824 3.847h.003l4.275 3.618c-.302.272 4.552-3.321 4.552-10.227 0-.926-.095-1.83-.27-2.706Z"/><path fill="#fff" d="M113 125.297c0-12.038 9.759-21.797 21.798-21.797h22.407c12.038 0 21.797 9.759 21.797 21.797v22.407c0 12.039-9.759 21.798-21.797 21.798h-22.407c-12.039 0-21.798-9.759-21.798-21.798v-22.407Z"/><path fill="url(#g)" d="M113 125.297c0-12.038 9.759-21.797 21.798-21.797h22.407c12.038 0 21.797 9.759 21.797 21.797v22.407c0 12.039-9.759 21.798-21.797 21.798h-22.407c-12.039 0-21.798-9.759-21.798-21.798v-22.407Z"/><g filter="url(#h)"><path fill="#fff" d="M151.473 121.465c2.984 0 5.541 1.066 7.672 3.197 2.131 2.131 3.197 4.688 3.197 7.672 0 2.983-1.066 5.541-3.197 7.673-1.641 1.64-3.591 2.652-5.849 3.036-2.26.383-4.423.075-6.491-.927l-.447.447v3.832c0 .709-.575 1.283-1.283 1.283h-2.549a1.284 1.284 0 0 0-1.283 1.284v2.541c0 .711-.58 1.287-1.291 1.283l-7.711-.049a1.283 1.283 0 0 1-1.276-1.299l.048-3.76 10.678-10.677c-.938-1.961-1.252-4.076-.943-6.346.309-2.269 1.326-4.267 3.052-5.993 2.132-2.131 4.69-3.197 7.673-3.197Zm1.919 5.687a3.208 3.208 0 1 0 0 6.417 3.208 3.208 0 0 0 0-6.417Z"/></g><g clip-path="url(#i)"><path fill="#DCEDFD" d="M280.402 86.098c-4.798-4.798-12.604-4.798-17.402 0a12.238 12.238 0 0 0-3.409 6.516 12.298 12.298 0 0 0 .573 6.47L249 110.25v5.801l13.946-13.947 1.45 1.45L250.45 117.5h9.301v-2.9h2.901v-2.901h2.9v-3.501l1.863-1.863c2.063.767 4.285.966 6.47.574a12.233 12.233 0 0 0 6.517-3.41c4.798-4.797 4.798-12.604 0-17.401Zm-3.625 7.976a3.077 3.077 0 1 1-4.351-4.352 3.077 3.077 0 0 1 4.351 4.352Z"/></g><g clip-path="url(#j)"><path fill="#DCEDFD" d="M249.402 22.098c-4.798-4.798-12.604-4.798-17.402 0a12.237 12.237 0 0 0-3.409 6.516 12.298 12.298 0 0 0 .573 6.47L218 46.25v5.8l13.946-13.946 1.45 1.45L219.45 53.5h9.301v-2.9h2.901v-2.9h2.9v-3.502l1.863-1.863c2.063.767 4.285.966 6.47.574a12.23 12.23 0 0 0 6.517-3.41c4.798-4.797 4.798-12.604 0-17.401Zm-3.625 7.976a3.077 3.077 0 1 1-4.351-4.352 3.077 3.077 0 0 1 4.351 4.351Z"/></g><g clip-path="url(#k)"><path fill="#DCEDFD" d="M160.402 8.098C155.604 3.3 147.798 3.3 143 8.098a12.238 12.238 0 0 0-3.409 6.516 12.298 12.298 0 0 0 .573 6.47L129 32.25v5.8l13.946-13.946 1.45 1.45L130.45 39.5h9.301v-2.9h2.901v-2.9h2.9v-3.502l1.863-1.863c2.063.767 4.285.966 6.47.574a12.23 12.23 0 0 0 6.517-3.41c4.798-4.797 4.798-12.604 0-17.401Zm-3.625 7.976a3.077 3.077 0 1 1-4.351-4.352 3.077 3.077 0 0 1 4.351 4.351Z"/></g><g clip-path="url(#l)"><path fill="#DCEDFD" d="M72.402 19.098C67.604 14.3 59.798 14.3 55 19.098a12.23 12.23 0 0 0-3.409 6.516 12.285 12.285 0 0 0 .573 6.47L41 43.25v5.8l13.946-13.946 1.45 1.45L42.45 50.5h9.301v-2.9h2.9v-2.9h2.901v-3.502l1.863-1.863c2.063.767 4.285.966 6.47.574a12.23 12.23 0 0 0 6.517-3.41c4.798-4.797 4.798-12.604 0-17.401Zm-3.625 7.976a3.076 3.076 0 1 1-4.35-4.35 3.076 3.076 0 0 1 4.35 4.35Z"/></g><path fill="#DCEDFD" d="M37.402 91.098C32.604 86.3 24.798 86.3 20 91.098a12.231 12.231 0 0 0-3.409 6.516 12.286 12.286 0 0 0 .573 6.471L6 115.249v5.8l13.946-13.946 1.45 1.45L7.45 122.5h9.301v-2.901h2.9v-2.9h2.901v-3.501l1.863-1.863c2.063.767 4.285.966 6.47.574a12.234 12.234 0 0 0 6.517-3.41c4.797-4.797 4.797-12.604 0-17.401Zm-3.625 7.976a3.076 3.076 0 1 1-4.35-4.35 3.076 3.076 0 0 1 4.35 4.35Z"/></g><defs><clipPath id="a"><path fill="#fff" d="M0 0h292v191H0z"/></clipPath><clipPath id="i"><path fill="#fff" d="M249 82.5h35v35h-35z"/></clipPath><clipPath id="j"><path fill="#fff" d="M218 18.5h35v35h-35z"/></clipPath><clipPath id="k"><path fill="#fff" d="M129 4.5h35v35h-35z"/></clipPath><clipPath id="l"><path fill="#fff" d="M41 15.5h35v35H41z"/></clipPath><linearGradient id="g" x1="124.444" x2="175.265" y1="163.577" y2="107.539" gradientUnits="userSpaceOnUse"><stop offset=".23" stop-color="#B6C4DF"/><stop offset="1" stop-color="#D3DDF5"/></linearGradient><filter id="h" width="42.596" height="42.54" x="125.356" y="116.977" color-interpolation-filters="sRGB" filterUnits="userSpaceOnUse"><feFlood flood-opacity="0" result="BackgroundImageFix"/><feColorMatrix in="SourceAlpha" result="hardAlpha" values="0 0 0 0 0 0 0 0 0 0 0 0 0 0 0 0 0 0 127 0"/><feOffset dy="1.122"/><feGaussianBlur stdDeviation="2.805"/><feComposite in2="hardAlpha" operator="out"/><feColorMatrix values="0 0 0 0 0 0 0 0 0 0 0 0 0 0 0 0 0 0 0.1 0"/><feBlend in2="BackgroundImageFix" result="effect1_dropShadow_4713_5734"/><feBlend in="SourceGraphic" in2="effect1_dropShadow_4713_5734" result="shape"/></filter></defs></svg>