<svg width="171" height="128" viewBox="0 0 171 128" fill="none" xmlns="http://www.w3.org/2000/svg">
<path fill-rule="evenodd" clip-rule="evenodd" d="M50.8665 125.273C53.7289 126.291 61.071 127.172 66.9878 127.524C83.1455 128.487 105.723 127.963 115.294 126.193C124.936 124.408 125.364 121.708 100.854 120.372C79.9816 119.233 55.6192 120.856 50.4093 123.273C49.0108 123.921 49.0877 124.642 50.8665 125.273Z" fill="#BBD9FD"/>
<path fill-rule="evenodd" clip-rule="evenodd" d="M91.5222 18.265L56.7776 25.4558C51.7261 26.5072 48.4841 31.4209 49.5294 36.4455L63.9992 105.696C65.0445 110.726 69.9899 113.944 75.036 112.913L109.786 105.696C114.843 104.666 118.074 99.7364 117.029 94.7065L102.564 25.4664C101.514 20.4418 96.5736 17.2136 91.5222 18.265Z" fill="#297EF1"/>
<path fill-rule="evenodd" clip-rule="evenodd" d="M107.547 83.5629L68.2337 91.7153L57.0537 38.22L96.3775 30.0781L107.547 83.5629ZM93.544 99.7621C92.4775 101.363 90.3126 101.823 88.6942 100.761C87.9142 100.253 87.373 99.4609 87.1873 98.5521C87.0069 97.6487 87.182 96.6976 87.6967 95.9368C88.7897 94.3782 90.9016 93.9449 92.5412 94.9277C94.1595 95.9844 94.6106 98.1295 93.5546 99.7515L93.544 99.7621Z" fill="#BBD9FD"/>
<path d="M130.438 0C111.66 0 96.438 15.2223 96.438 34L96.4411 34.4606C96.6074 46.8809 103.492 58.0263 114.139 63.8459L114.38 63.975L114.474 63.812C113.967 64.6648 113.65 65.553 113.65 66.4345C113.65 68.3329 114.556 69.9286 116.385 70.5667L116.691 70.6686C120.159 71.7612 123.293 70.7257 127.086 68.0702L127.376 67.863L128.124 67.9224C128.892 67.9741 129.663 68 130.438 68C149.216 68 164.438 52.7777 164.438 34C164.438 15.2223 149.216 0 130.438 0Z" fill="white"/>
<path d="M130.438 0C111.66 0 96.438 15.2223 96.438 34L96.4411 34.4606C96.6074 46.8809 103.492 58.0263 114.139 63.8459L114.38 63.975L114.474 63.812C113.967 64.6648 113.65 65.553 113.65 66.4345C113.65 68.3329 114.556 69.9286 116.385 70.5667L116.691 70.6686C120.159 71.7612 123.293 70.7257 127.086 68.0702L127.376 67.863L128.124 67.9224C128.892 67.9741 129.663 68 130.438 68C149.216 68 164.438 52.7777 164.438 34C164.438 15.2223 149.216 0 130.438 0ZM130.438 4C147.007 4 160.438 17.4315 160.438 34C160.438 50.5685 147.007 64 130.438 64C129.297 64 128.164 63.9364 127.042 63.8101L126.27 63.7231L125.079 64.5901C122.093 66.7327 119.982 67.4853 117.916 66.8598L117.703 66.7902C117.654 66.7732 117.65 66.7668 117.65 66.4345C117.65 66.3963 117.74 66.1447 117.891 65.8901L117.973 65.7604C118.42 65.0758 118.738 64.3353 118.937 63.5235L119.328 61.9251L117.835 61.2328C107.314 56.3543 100.438 45.8014 100.438 34C100.438 17.4315 113.869 4 130.438 4Z" fill="#BBD9FD"/>
<path fill-rule="evenodd" clip-rule="evenodd" d="M137.667 13.332L137.993 13.3365C144.177 13.5065 149.159 18.4881 149.329 24.6721L149.333 24.9987L149.329 25.3252C149.159 31.5082 144.177 36.4909 137.993 36.6609L137.667 36.6654L137.34 36.6609C135.933 36.6222 134.589 36.3344 133.349 35.8401L120.376 49.244C119.496 50.1525 118.286 50.6654 117.022 50.6654H114.333C113.045 50.6654 112 49.6207 112 48.332V43.907C112 43.3788 112.21 42.8722 112.583 42.4987L112.638 42.4441C112.982 42.1002 113.425 41.8724 113.904 41.7924L114.94 41.6197C115.937 41.4537 116.667 40.5919 116.667 39.582V38.9987C116.667 38.3544 117.189 37.832 117.833 37.832H118.417C119.383 37.832 120.167 37.0485 120.167 36.082V35.4987C120.167 34.8544 120.689 34.332 121.333 34.332H122.208C123.014 34.332 123.667 33.6791 123.667 32.8737V32.3819C123.667 31.763 123.913 31.1695 124.35 30.7319L126.546 28.5359C126.191 27.4202 126 26.2317 126 24.9987C126 18.5552 131.223 13.332 137.667 13.332ZM137.832 17.9987C137.289 17.9987 136.744 18.0629 136.212 18.1924C134.502 18.6085 133.873 20.6861 134.994 21.9855L135.116 22.117L140.548 27.549C141.791 28.7918 143.897 28.2609 144.424 26.6265L144.473 26.4535C144.994 24.3098 144.466 21.9643 142.887 20.2329L142.665 20.0007C141.413 18.7494 139.798 18.0837 138.16 18.0063L137.832 17.9987Z" fill="#BFC3C7"/>
<path fill-rule="evenodd" clip-rule="evenodd" d="M116.667 50.6664H113.4C113.327 50.6664 113.254 50.6607 113.184 50.6498L130.022 33.8125C130.654 34.3618 131.347 34.8441 132.088 35.2483L116.667 50.6664Z" fill="#95999D"/>
<path d="M149.334 43.201C149.334 47.3248 145.991 50.6677 141.867 50.6677C137.743 50.6677 134.4 47.3248 134.4 43.201C134.4 39.0773 137.743 35.7344 141.867 35.7344C145.991 35.7344 149.334 39.0773 149.334 43.201Z" fill="#297EF1"/>
<path fill-rule="evenodd" clip-rule="evenodd" d="M150.267 43.2008C150.267 47.84 146.506 51.6008 141.867 51.6008C137.228 51.6008 133.467 47.84 133.467 43.2008C133.467 38.5616 137.228 34.8008 141.867 34.8008C146.506 34.8008 150.267 38.5616 150.267 43.2008ZM141.867 50.6674C145.991 50.6674 149.334 47.3245 149.334 43.2008C149.334 39.0771 145.991 35.7341 141.867 35.7341C137.744 35.7341 134.401 39.0771 134.401 43.2008C134.401 47.3245 137.744 50.6674 141.867 50.6674Z" fill="white"/>
<path fill-rule="evenodd" clip-rule="evenodd" d="M143.322 44.0779C143.252 44.1873 143.097 44.2201 142.989 44.1484C142.98 44.1428 142.971 44.1365 142.963 44.1302C142.65 44.3754 142.265 44.5092 141.865 44.5092C141.466 44.5092 141.082 44.376 140.769 44.1317C140.761 44.1374 140.753 44.1434 140.745 44.1484C140.634 44.2204 140.481 44.1861 140.412 44.0788C140.341 43.9701 140.372 43.8229 140.48 43.7503C140.574 43.6885 140.58 43.5651 140.58 43.5639C140.583 43.4994 140.611 43.4379 140.658 43.3946C140.704 43.3513 140.763 43.3262 140.827 43.3313C140.957 43.3343 141.062 43.443 141.059 43.5738C141.059 43.5756 141.059 43.641 141.036 43.7318C141.518 44.1323 142.217 44.1308 142.698 43.7285C142.68 43.6589 142.676 43.6034 142.674 43.5777C142.673 43.5105 142.697 43.4496 142.742 43.4033C142.786 43.3579 142.846 43.3322 142.91 43.331H142.914C143.043 43.331 143.15 43.4352 143.153 43.5648C143.153 43.5648 143.16 43.6888 143.253 43.75C143.362 43.8217 143.393 43.9683 143.322 44.0779ZM144.342 41.2806C144.273 40.697 144.015 40.1576 143.6 39.7407C143.124 39.2625 142.496 39 141.83 39C141.165 39 140.536 39.2625 140.061 39.741C139.644 40.1594 139.385 40.7018 139.318 41.2887C138.746 41.358 138.218 41.6241 137.81 42.0515C137.345 42.5398 137.088 43.1852 137.088 43.8686C137.088 45.3013 138.223 46.4667 139.619 46.4667H144.115C145.51 46.4667 146.646 45.3013 146.646 43.8686C146.646 42.5147 145.631 41.3992 144.342 41.2806Z" fill="white"/>
</svg>
