<svg xmlns="http://www.w3.org/2000/svg" width="105" height="78" fill="none"><path fill="#fff" d="M0 21.797C0 9.76 9.76 0 21.798 0h22.407c12.038 0 21.797 9.759 21.797 21.797v22.407c0 12.039-9.759 21.798-21.797 21.798H21.798C9.759 66.002 0 56.242 0 44.204V21.797Z"/><path fill="url(#a)" d="M0 21.797C0 9.76 9.76 0 21.798 0h22.407c12.038 0 21.797 9.759 21.797 21.797v22.407c0 12.039-9.759 21.798-21.797 21.798H21.798C9.759 66.002 0 56.242 0 44.204V21.797Z"/><g filter="url(#b)"><path fill="#fff" d="M38.473 17.965c2.984 0 5.541 1.066 7.672 3.197 2.131 2.131 3.197 4.688 3.197 7.672 0 2.983-1.066 5.541-3.197 7.673-1.64 1.64-3.59 2.652-5.85 3.036-2.259.383-4.422.075-6.49-.927l-.447.447v3.832c0 .709-.575 1.283-1.283 1.283h-2.549c-.709 0-1.283.575-1.283 1.284v2.54c0 .712-.58 1.288-1.291 1.284l-7.711-.049a1.283 1.283 0 0 1-1.276-1.299l.048-3.76 10.678-10.677c-.938-1.96-1.252-4.076-.943-6.346.309-2.27 1.326-4.267 3.052-5.993 2.132-2.131 4.69-3.197 7.673-3.197Zm1.92 5.687a3.208 3.208 0 1 0 0 6.417 3.208 3.208 0 0 0 0-6.417Z"/></g><path fill="#FFE09D" fill-rule="evenodd" d="M99.401 42H38.6C35.52 42 33 44.52 33 47.599v13.927c0 3.083 2.52 5.598 5.599 5.598h6.859V77.54l10.746-10.415h43.197c3.078 0 5.599-2.515 5.599-5.598V47.599C105 44.52 102.479 42 99.401 42Z" clip-rule="evenodd"/><path fill="#fff" d="M57.582 50.92a1.325 1.325 0 0 0-1.81-.484l-3.171 1.832v-3.661a1.325 1.325 0 1 0-2.65 0v3.66l-3.171-1.83a1.324 1.324 0 1 0-1.325 2.293l3.172 1.832-3.172 1.832a1.325 1.325 0 1 0 1.325 2.295l3.172-1.832v3.66a1.324 1.324 0 1 0 2.649 0v-3.66l3.172 1.832a1.324 1.324 0 1 0 1.325-2.295l-3.173-1.832 3.173-1.832a1.325 1.325 0 0 0 .484-1.81Zm17.724 0a1.325 1.325 0 0 0-1.81-.484l-3.171 1.832v-3.661a1.324 1.324 0 1 0-2.65 0v3.66l-3.171-1.83a1.323 1.323 0 0 0-1.943 1.49 1.325 1.325 0 0 0 .618.803l3.172 1.832-3.172 1.832a1.326 1.326 0 0 0 1.325 2.295l3.171-1.832v3.661a1.325 1.325 0 1 0 2.65 0v-3.66l3.172 1.83a1.325 1.325 0 1 0 1.324-2.294l-3.172-1.831 3.172-1.832a1.325 1.325 0 0 0 .485-1.81Zm17.234 5.474-3.171-1.832 3.17-1.832a1.325 1.325 0 0 0-1.324-2.294l-3.167 1.83v-3.66a1.325 1.325 0 0 0-2.649 0v3.663l-3.172-1.833a1.325 1.325 0 0 0-1.325 2.294l3.171 1.832-3.171 1.832a1.325 1.325 0 0 0 1.325 2.294l3.172-1.832v3.662a1.325 1.325 0 0 0 2.65 0v-3.659l3.166 1.83a1.323 1.323 0 0 0 1.942-1.49 1.324 1.324 0 0 0-.617-.805Z"/><defs><linearGradient id="a" x1="11.444" x2="62.265" y1="60.077" y2="4.039" gradientUnits="userSpaceOnUse"><stop offset=".23" stop-color="#B6C4DF"/><stop offset="1" stop-color="#D3DDF5"/></linearGradient><filter id="b" width="42.596" height="42.54" x="12.356" y="13.477" color-interpolation-filters="sRGB" filterUnits="userSpaceOnUse"><feFlood flood-opacity="0" result="BackgroundImageFix"/><feColorMatrix in="SourceAlpha" result="hardAlpha" values="0 0 0 0 0 0 0 0 0 0 0 0 0 0 0 0 0 0 127 0"/><feOffset dy="1.122"/><feGaussianBlur stdDeviation="2.805"/><feComposite in2="hardAlpha" operator="out"/><feColorMatrix values="0 0 0 0 0 0 0 0 0 0 0 0 0 0 0 0 0 0 0.1 0"/><feBlend in2="BackgroundImageFix" result="effect1_dropShadow_4713_5808"/><feBlend in="SourceGraphic" in2="effect1_dropShadow_4713_5808" result="shape"/></filter></defs></svg>